PathFileType	4	(X/Y/Z)	c:/Users/goper/Files/vsCode/490R/osim_files/C15/C15_SSWS_06.trc
DataRate	CameraRate	NumFrames	NumMarkers	Units                	OrigDataRate	OrigDataStartFrame	OrigNumFrames
250.00	250.00	6	36	mm	250.0	1667	2667
                Frame#	Time	LPSIS			LASIS			LTH1			LTH2			LTH3			LTH4			LLFE			LMFE			LSH1			LSH2			LSH3			LSH4			LLMAL			LMMAL			LCAL			LMTP5			LTOE			LMTP1			RPSIS			RASIS			RTH1			RTH2			RTH3			RTH4			RLFE			RMFE			RSH1			RSH2			RSH3			RSH4			RLMAL			RMMAL			RCAL			RMTP1			RTOE			RMTP5		
		X1	Y1	Z1	X2	Y2	Z2	X3	Y3	Z3	X4	Y4	Z4	X5	Y5	Z5	X6	Y6	Z6	X7	Y7	Z7	X8	Y8	Z8	X9	Y9	Z9	X10	Y10	Z10	X11	Y11	Z11	X12	Y12	Z12	X13	Y13	Z13	X14	Y14	Z14	X15	Y15	Z15	X16	Y16	Z16	X17	Y17	Z17	X18	Y18	Z18	X19	Y19	Z19	X20	Y20	Z20	X21	Y21	Z21	X22	Y22	Z22	X23	Y23	Z23	X24	Y24	Z24	X25	Y25	Z25	X26	Y26	Z26	X27	Y27	Z27	X28	Y28	Z28	X29	Y29	Z29	X30	Y30	Z30	X31	Y31	Z31	X32	Y32	Z32	X33	Y33	Z33	X34	Y34	Z34	X35	Y35	Z35	X36	Y36	Z36

1667	6.66400	-1745.15088	1014.67316	304.82446	-1917.01453	993.16858	358.49362	-1921.95972	609.41241	421.77304	-1931.76599	565.61401	406.22003	-1969.56750	629.64972	417.65579	-1980.41187	586.28839	406.89160	-1965.08972	498.26117	382.27039	-1960.65845	487.23328	263.00980	-1918.48755	385.51364	398.29797	-1919.93689	340.87726	399.30527	-1978.83557	384.95386	391.55334	-1974.22656	340.42297	395.61606	-1945.97485	83.72053	331.01431	-1965.89600	112.04147	244.51057	-1886.92554	62.21586	285.44974	-2070.09717	44.08767	349.04187	-2124.89062	70.21462	287.45212	-2086.79883	38.92943	231.07381	-1738.30066	1006.92151	184.52240	-1887.72510	975.86145	111.46832	-1825.67456	602.80530	58.80597	-1829.11182	556.68933	66.03690	-1886.08948	601.70337	65.22344	-1881.31018	554.16827	67.08354	-1834.35718	463.84933	85.03383	-1831.55957	441.70587	202.70007	-1706.31067	443.08344	77.43549	-1674.69897	413.64148	74.44576	-1740.96155	387.95248	68.44083	-1706.30261	373.41925	63.70051	-1500.39746	208.97113	126.00767	-1542.97888	200.97415	209.38522	-1446.31250	246.09923	175.44734	-1541.00940	73.85995	223.91414	-1567.73425	63.95473	170.21806	-1503.81995	72.34934	110.58719
1668	6.66800	-1749.15015	1015.07843	305.44565	-1920.93909	993.56244	358.91635	-1924.41321	609.47296	422.10193	-1933.97729	565.77301	406.45697	-1971.97473	629.53351	417.90134	-1982.75085	586.21271	407.22357	-1967.10107	498.15482	382.64954	-1962.72766	487.34116	263.37906	-1919.30884	385.63803	398.00659	-1920.62183	340.90604	398.99472	-1979.85608	384.71640	391.93826	-1974.79309	340.19467	395.83597	-1946.01282	83.70805	331.00067	-1965.97339	112.00152	244.48759	-1886.92224	62.17726	285.55661	-2070.12988	44.05079	349.03641	-2124.88647	70.09328	287.42972	-2086.86377	38.72103	231.13597	-1741.97266	1007.10712	185.16484	-1891.39624	976.17810	111.90916	-1832.48181	602.78168	59.06517	-1836.55310	556.78204	66.13789	-1892.86206	602.31732	64.93458	-1888.43286	554.74481	66.69578	-1843.04578	464.50699	84.64462	-1840.81763	442.10907	202.35406	-1715.37354	444.11346	76.91442	-1683.61548	414.88162	73.92303	-1749.96375	389.12851	67.80216	-1714.82104	374.40417	63.40219	-1507.25525	212.68129	125.74400	-1549.84814	203.78436	209.18065	-1454.86084	251.60236	175.27406	-1544.44714	76.36901	223.61121	-1570.61670	64.38541	170.28998	-1507.19348	76.16718	110.49440
1669	6.67200	-1753.03015	1015.53802	306.06403	-1924.89954	994.07782	359.34592	-1926.83203	609.62958	422.43500	-1936.23389	565.97260	406.93451	-1974.35229	629.53339	418.27750	-1984.53809	585.85205	407.10117	-1968.86768	498.02847	382.97931	-1964.83582	487.42624	263.79996	-1920.14746	385.80762	397.79184	-1921.20300	340.98395	398.72943	-1980.66235	384.44733	392.36765	-1975.29407	339.97168	396.14130	-1946.02869	83.69879	330.95511	-1966.06970	112.02552	244.46870	-1886.97607	62.11343	285.63651	-2070.11938	44.02539	349.06424	-2124.92651	69.98765	287.41672	-2086.89185	38.61979	231.10716	-1745.68420	1007.28186	185.82785	-1895.09827	976.57654	112.29540	-1839.15161	603.06702	58.99908	-1843.27344	557.13629	65.93478	-1899.46899	603.03644	64.65727	-1895.65186	555.36877	66.49289	-1850.84436	464.46927	84.68028	-1849.38403	442.65860	202.27962	-1724.49719	445.07050	76.41704	-1692.39685	416.08664	73.47265	-1759.06311	390.34207	67.30567	-1723.35425	375.42978	63.22788	-1514.21667	216.38327	125.39590	-1556.68274	206.65544	209.07948	-1463.84717	257.11093	175.31012	-1548.06799	79.01929	223.28508	-1574.50085	65.57501	169.74326	-1510.68384	80.06853	110.45384
1670	6.67600	-1756.87292	1015.96704	306.69025	-1928.75586	994.61414	359.79483	-1929.20081	609.72461	422.79120	-1938.34705	566.17261	407.19705	-1976.76929	629.56360	418.63043	-1987.23840	586.08759	407.91046	-1970.58252	497.90720	383.42035	-1966.99316	487.49252	264.26123	-1919.56396	386.77426	397.43103	-1921.81287	341.07159	398.52985	-1981.59033	384.25015	392.82590	-1975.84924	339.75925	396.45020	-1946.08472	83.65933	330.94614	-1966.18201	112.03531	244.47795	-1887.00806	62.06226	285.71051	-2070.13501	43.98491	349.07578	-2124.92065	69.89751	287.42346	-2086.89551	38.58738	231.06917	-1749.44861	1007.50287	186.40038	-1898.65649	976.97955	112.62177	-1845.78479	603.41498	58.97446	-1850.32458	557.39868	65.81320	-1906.14148	603.88489	64.29728	-1902.69031	556.14648	66.16257	-1859.46545	465.29492	84.13517	-1857.79907	443.33527	202.27144	-1733.61975	446.02530	75.93179	-1701.43481	417.24292	72.94467	-1767.09778	392.29892	66.91843	-1732.00452	376.36191	63.01945	-1521.22803	220.05208	125.12097	-1563.95532	209.25360	208.79863	-1473.00317	262.50818	175.04037	-1551.89307	81.69164	222.99483	-1578.16577	66.39647	169.41389	-1514.29126	83.94600	110.38780
1671	6.68000	-1760.68457	1016.37036	307.25449	-1932.46509	995.05737	360.27792	-1931.47168	609.86243	423.20178	-1940.42322	566.22968	407.52380	-1979.06470	629.53778	418.99988	-1989.11487	585.95306	408.55106	-1972.10791	497.93527	383.83774	-1969.16309	487.46243	264.70496	-1920.46802	386.89032	397.06708	-1922.36279	341.17822	398.40225	-1982.32446	384.01221	393.26987	-1976.43347	339.52921	396.79504	-1946.09131	83.67365	330.97141	-1966.31372	112.09140	244.49281	-1887.00635	62.04564	285.69086	-2070.14551	43.95912	349.08694	-2124.92480	69.81796	287.40540	-2086.91431	38.53259	231.02744	-1752.94897	1007.95215	186.81456	-1902.41687	977.45227	113.05945	-1852.49854	603.90161	58.99518	-1857.32971	557.93475	65.72531	-1912.74475	604.86029	64.08585	-1909.71448	557.10181	65.88909	-1867.39575	465.58142	84.17866	-1866.11377	444.18915	202.26082	-1742.70752	447.04346	75.48759	-1710.29126	418.38925	72.47527	-1777.05298	392.65637	66.21776	-1740.67432	377.29248	62.87248	-1528.40796	223.55244	125.01457	-1571.18616	211.89980	208.69762	-1482.74451	267.76782	174.80560	-1556.05042	84.31138	222.68187	-1581.83887	67.00467	169.10782	-1518.16614	87.86379	110.37161
1672	6.68400	-1764.45691	1016.72614	307.75333	-1936.15356	995.64331	360.69656	-1933.74451	609.99811	423.58994	-1942.50867	566.52100	408.10446	-1981.36133	629.51581	419.28256	-1991.53882	585.99451	408.57504	-1973.63000	497.86725	384.22156	-1971.25366	487.33472	265.15106	-1921.56323	386.94330	396.94061	-1922.82764	341.31305	398.36099	-1983.02173	383.83148	393.64856	-1977.10400	339.44690	397.07669	-1946.07019	83.68283	330.96103	-1966.40894	112.13744	244.50235	-1886.96545	61.97380	285.65668	-2070.14062	43.93216	349.08170	-2124.92114	69.76170	287.38965	-2086.92432	38.50971	230.98083	-1756.70569	1008.12964	187.43623	-1906.05127	978.00427	113.45304	-1859.06616	604.53394	59.01782	-1864.32495	558.57294	65.64748	-1919.30811	605.92401	63.80244	-1916.70935	558.07397	65.53845	-1876.19409	466.73465	83.83168	-1874.43066	445.12604	202.23526	-1751.75916	448.11603	74.99062	-1719.21680	419.65591	72.00211	-1785.39441	394.55853	66.04270	-1749.51074	378.34921	62.76192	-1535.65698	226.94168	124.92909	-1578.48975	214.57391	208.61938	-1492.78687	272.79700	174.56198	-1560.53833	86.92915	222.33868	-1586.23755	67.76151	168.68892	-1522.28296	91.76881	110.40346
